<?xml version="1.0" encoding="UTF-8"?>
<!DOCTYPE svg PUBLIC "-//W3C//DTD SVG 1.1//EN" "http://www.w3.org/Graphics/SVG/1.1/DTD/svg11.dtd">
<!-- Creator: CorelDRAW 2020 (64-Bit) -->
<svg xmlns="http://www.w3.org/2000/svg" xml:space="preserve" width="297mm" height="210mm" version="1.1" style="shape-rendering:geometricPrecision; text-rendering:geometricPrecision; image-rendering:optimizeQuality; fill-rule:evenodd; clip-rule:evenodd"
viewBox="0 0 29700 21000"
 xmlns:xlink="http://www.w3.org/1999/xlink"
 xmlns:xodm="http://www.corel.com/coreldraw/odm/2003">
 <defs>
  <style type="text/css">
   <![CDATA[
    .fil2 {fill:#FEFEFE;fill-rule:nonzero}
    .fil1 {fill:#373435;fill-rule:nonzero}
    .fil6 {fill:#D6D7D8;fill-rule:nonzero}
    .fil3 {fill:#4AA4FC;fill-rule:nonzero}
    .fil0 {fill:#B7B7B7;fill-rule:nonzero}
    .fil5 {fill:#3EAE1F;fill-rule:nonzero}
    .fil4 {fill:#007BB9;fill-rule:nonzero}
   ]]>
  </style>
    <mask id="id0">
  <linearGradient id="id1" gradientUnits="userSpaceOnUse" x1="18719.86" y1="8846.64" x2="20066.44" y2="9605.87">
   <stop offset="0" style="stop-opacity:1; stop-color:white"/>
   <stop offset="1" style="stop-opacity:0; stop-color:white"/>
  </linearGradient>
     <rect style="fill:url(#id1)" x="18967.47" y="8768.94" width="3149.71" height="3323.4"/>
    </mask>
    <mask id="id2">
  <linearGradient id="id3" gradientUnits="userSpaceOnUse" x1="15922.77" y1="8623.37" x2="17279.93" y2="9466.25">
   <stop offset="0" style="stop-opacity:1; stop-color:white"/>
   <stop offset="1" style="stop-opacity:0; stop-color:white"/>
  </linearGradient>
     <rect style="fill:url(#id3)" x="16301.58" y="8846.63" width="2418.28" height="3172.55"/>
    </mask>
    <mask id="id4">
  <linearGradient id="id5" gradientUnits="userSpaceOnUse" x1="13194.19" y1="8566.25" x2="14376.26" y2="9537.68">
   <stop offset="0" style="stop-opacity:1; stop-color:white"/>
   <stop offset="1" style="stop-opacity:0; stop-color:white"/>
  </linearGradient>
     <rect style="fill:url(#id5)" x="13548.88" y="8846.63" width="2655.95" height="3172.55"/>
    </mask>
    <mask id="id6">
  <linearGradient id="id7" gradientUnits="userSpaceOnUse" x1="10637.12" y1="8451.95" x2="11602.23" y2="9440.93">
   <stop offset="0" style="stop-opacity:1; stop-color:white"/>
   <stop offset="1" style="stop-opacity:0; stop-color:white"/>
  </linearGradient>
     <rect style="fill:url(#id7)" x="10756.54" y="8846.63" width="2253.71" height="3172.55"/>
    </mask>
    <mask id="id8">
  <linearGradient id="id9" gradientUnits="userSpaceOnUse" x1="8965.66" y1="8537.69" x2="9737.1" y2="9466.25">
   <stop offset="0" style="stop-opacity:1; stop-color:white"/>
   <stop offset="1" style="stop-opacity:0; stop-color:white"/>
  </linearGradient>
     <rect style="fill:url(#id9)" x="9299.01" y="8846.63" width="845.69" height="3172.55"/>
    </mask>
    <mask id="id10">
  <linearGradient id="id11" gradientUnits="userSpaceOnUse" x1="5879.98" y1="8366.26" x2="7090.98" y2="10126.64">
   <stop offset="0" style="stop-opacity:1; stop-color:white"/>
   <stop offset="1" style="stop-opacity:0; stop-color:white"/>
  </linearGradient>
     <rect style="fill:url(#id11)" x="6263.6" y="8846.63" width="2537.11" height="3172.55"/>
    </mask>
    <mask id="id12">
  <linearGradient id="id13" gradientUnits="userSpaceOnUse" x1="3208.53" y1="8809.11" x2="4379.95" y2="10223.39">
   <stop offset="0" style="stop-opacity:1; stop-color:white"/>
   <stop offset="1" style="stop-opacity:0; stop-color:white"/>
  </linearGradient>
     <rect style="fill:url(#id13)" x="2652.2" y="8846.63" width="3423.94" height="3172.55"/>
    </mask>
 </defs>
 <g id="Capa_x0020_1">
  <metadata id="CorelCorpID_0Corel-Layer"/>
  <g id="_2887149185376">
   <path class="fil0" d="M13171.26 7024.58l-21.56 275.91c-49.34,-27.04 -100.5,-46.77 -154.23,-59.56 -53.35,-12.43 -113.29,-18.64 -178.7,-18.64 -141.43,0 -250.7,46.05 -327.81,138.14 -77.11,92.09 -115.85,222.56 -115.85,391.77 0,172.12 32.89,303.69 99.04,394.68 66.14,91 161.53,136.68 286.51,136.68 20.83,0 41.66,-1.82 62.86,-5.84 20.83,-4.02 42.39,-10.24 64.68,-19.01l0 -358.87 -195.15 0 0 -256.55 526.25 0 0 813.5c-61.39,26.31 -132.29,46.41 -212.69,60.3 -80.4,13.89 -166.65,20.83 -258.74,20.83 -234.99,0 -416.98,-66.88 -546.72,-200.27 -129.73,-133.39 -194.42,-320.87 -194.42,-562.8 0,-255.45 68.71,-454.26 205.75,-596.05 137.05,-142.16 329.64,-213.06 577.42,-213.06 67.61,0 133.75,5.12 197.34,14.98 63.96,9.87 126.08,24.49 186.02,43.86z"/>
   <path id="1" class="fil0" d="M14059.31 7222.29c-87.71,0 -155.32,46.05 -202.83,138.14 -47.51,92.09 -71.26,222.56 -71.26,391.77 0,169.2 23.75,299.67 71.26,391.4 47.51,91.72 115.12,137.77 202.83,137.77 87.71,0 155.32,-46.05 202.83,-137.77 47.51,-91.73 71.26,-222.2 71.26,-391.4 0,-169.21 -23.75,-299.68 -71.63,-391.77 -47.87,-92.09 -115.48,-138.14 -202.46,-138.14zm0 -256.55c202.83,0 361.07,69.07 474.36,207.58 113.65,138.5 170.3,331.46 170.3,578.88 0,248.5 -56.65,441.46 -170.3,579.24 -113.29,137.77 -271.53,206.48 -474.36,206.48 -204.29,0 -362.53,-68.71 -475.45,-206.12 -112.93,-137.41 -169.21,-330.37 -169.21,-579.6 0,-247.42 56.65,-440.38 170.3,-578.88 113.29,-138.51 271.53,-207.58 474.36,-207.58z"/>
   <path id="2" class="fil0" d="M15270.06 7851.6l0 405.65 84.79 0c85.51,0 147.64,-15.71 186.38,-47.14 38.37,-31.43 57.74,-82.23 57.74,-152.4 0,-73.09 -19,-125.71 -57.38,-157.87 -38,-32.16 -100.5,-48.24 -186.74,-48.24l-84.79 0zm0 -605.19l0 370.57 78.21 0c77.47,0 133.39,-14.26 168.11,-42.76 34.71,-28.51 51.89,-74.92 51.89,-139.24 0,-66.51 -17.54,-114.39 -52.62,-143.99 -35.09,-29.6 -92.83,-44.58 -173.59,-44.58l-72 0zm-333.29 -254.36l467.41 0c169.21,0 294.92,31.43 376.78,94.29 81.87,62.86 122.8,160.07 122.8,291.27 0,93.55 -23.76,169.93 -71.27,229.13 -47.51,59.57 -116.21,97.95 -205.75,115.85 104.52,18.64 182,58.84 233.16,120.97 51.17,62.13 76.75,147.28 76.75,255.82 0,141.43 -44.59,245.95 -133.39,313.19 -88.81,67.61 -227.31,101.23 -415.16,101.23l-451.33 0 0 -1521.75z"/>
   <polygon id="3" class="fil0" points="16162.5,6992.05 16511.14,6992.05 16511.14,8513.8 16162.5,8513.8 "/>
   <polygon id="4" class="fil0" points="16813.37,6992.05 17679.49,6992.05 17679.49,7246.41 17162.01,7246.41 17162.01,7610.4 17650.99,7610.4 17650.99,7864.75 17162.01,7864.75 17162.01,8257.25 17703.61,8257.25 17703.61,8513.8 16813.37,8513.8 "/>
   <path id="5" class="fil0" d="M18295.64 7246.41l0 390.3 73.82 0c86.98,0 149.47,-14.98 187.48,-44.95 37.64,-29.97 56.65,-78.57 56.65,-145.45 0,-73.46 -17.18,-124.98 -51.9,-154.95 -34.72,-29.97 -96.84,-44.95 -186.74,-44.95l-79.31 0zm-342.06 -254.36l359.24 0c18.64,0 37.27,-0.36 56.64,-1.09 19.37,-0.73 29.61,-1.1 31.07,-1.1 193.69,0 334.39,32.52 422.83,97.94 88.07,65.42 132.29,169.57 132.29,312.46 0,93.56 -24.12,170.67 -72.72,231.34 -48.61,60.66 -119.51,102.32 -212.33,125.35 45.68,11.33 81.86,32.89 108.54,64.32 27.04,31.42 54.45,90.63 82.22,177.97l167.02 514.56 -359.98 0 -121.33 -431.23c-21.19,-78.58 -44.95,-130.11 -70.89,-154.59 -26.32,-24.49 -64.69,-36.91 -115.12,-36.91l-65.42 0 0 622.73 -342.06 0 0 -1521.75z"/>
   <polygon id="6" class="fil0" points="19196.49,6992.05 19597.39,6992.05 20056.03,8101.57 20056.03,6992.05 20354.24,6992.05 20354.24,8513.8 19953.34,8513.8 19492.5,7402.09 19492.5,8513.8 19196.49,8513.8 "/>
   <path id="7" class="fil0" d="M21229.14 7222.29c-87.71,0 -155.32,46.05 -202.83,138.14 -47.51,92.09 -71.26,222.56 -71.26,391.77 0,169.2 23.75,299.67 71.26,391.4 47.51,91.72 115.12,137.77 202.83,137.77 87.71,0 155.32,-46.05 202.83,-137.77 47.51,-91.73 71.26,-222.2 71.26,-391.4 0,-169.21 -23.75,-299.68 -71.63,-391.77 -47.87,-92.09 -115.48,-138.14 -202.46,-138.14zm0 -256.55c202.83,0 361.07,69.07 474.36,207.58 113.65,138.5 170.3,331.46 170.3,578.88 0,248.5 -56.65,441.46 -170.3,579.24 -113.29,137.77 -271.53,206.48 -474.36,206.48 -204.29,0 -362.53,-68.71 -475.45,-206.12 -112.93,-137.41 -169.21,-330.37 -169.21,-579.6 0,-247.42 56.65,-440.38 170.3,-578.88 113.29,-138.51 271.53,-207.58 474.36,-207.58z"/>
   <path class="fil1" d="M4348.14 9554.47l-410.66 1189.31 808.37 0 -397.71 -1189.31zm-492.94 -707.79l1020.17 0 1200.73 3172.5 -904.36 0 -225.52 -671.99 -1220.54 0 -236.95 671.99 -836.55 0 1203.02 -3172.5z"/>
   <path id="1" class="fil1" d="M7090.94 10688.92l0 745.13 332.95 0c172.18,0 303.23,-32 392.37,-96.76 89.14,-64.76 134.09,-159.23 134.09,-282.66 0,-121.9 -41.14,-213.33 -122.66,-274.28 -81.53,-60.95 -203.43,-91.43 -365.71,-91.43l-371.04 0zm0 -1270.83l0 708.56 256.76 0c179.04,0 312.37,-30.48 401.51,-90.67 88.38,-60.18 132.57,-152.37 132.57,-275.8 0,-112 -41.9,-196.57 -124.95,-255.23 -83.81,-57.91 -206.47,-86.86 -368.75,-86.86l-297.14 0zm-827.41 -571.41l1299.02 0c383.23,0 671.98,68.57 865.5,206.47 193.52,137.9 290.28,342.85 290.28,615.6 0,182.86 -50.28,335.24 -151.61,456.38 -101.33,121.14 -248.38,208.75 -441.9,262.85 217.14,39.62 383.99,124.95 500.56,255.23 116.57,130.28 175.24,296.37 175.24,499.04 0,297.13 -106.67,518.08 -319.23,661.32 -212.57,143.99 -540.94,215.61 -983.6,215.61l-1234.26 0 0 -3172.5z"/>
   <polygon id="2" class="fil1" points="9298.89,8846.68 10144.59,8846.68 10144.59,12019.18 9298.89,12019.18 "/>
   <polygon id="3" class="fil1" points="10756.38,8846.68 12959.76,8846.68 12959.76,9440.95 11602.08,9440.95 11602.08,10080.94 12882.05,10080.94 12882.05,10684.35 11602.08,10684.35 11602.08,11406.62 13010.04,11406.62 13010.04,12019.18 10756.38,12019.18 "/>
   <path id="4" class="fil1" d="M14376.11 9404.38l0 813.7 297.14 0c182.85,0 319.99,-33.53 411.42,-99.81 91.42,-66.29 137.14,-165.33 137.14,-297.9 0,-143.23 -51.05,-248.38 -153.14,-315.42 -101.33,-67.05 -262.86,-100.57 -483.04,-100.57l-209.52 0zm-827.41 -557.7l1260.16 0c420.56,0 732.18,67.8 935.6,204.18 203.43,136.38 304.76,343.61 304.76,621.7 0,205.71 -53.34,374.85 -160.76,507.42 -107.43,132.57 -262.85,220.95 -465.52,265.9 166.86,60.95 300.95,233.9 402.28,519.61l0 2.28 379.42 1051.41 -882.26 0 -278.86 -868.55c-44.95,-139.43 -105.9,-236.19 -182.85,-290.28 -77.71,-53.33 -198.09,-80 -361.9,-80l-122.66 0 0 1238.83 -827.41 0 0 -3172.5z"/>
   <polygon id="5" class="fil1" points="16301.41,8846.68 18719.64,8846.68 18719.64,9482.09 17933.37,9482.09 17933.37,12019.18 17087.67,12019.18 17087.67,9482.09 16301.41,9482.09 "/>
   <path id="6" class="fil1" d="M20545.13 9386.09c-218.67,0 -394.66,94.48 -527.99,282.66 -133.33,188.19 -199.62,439.61 -199.62,755.04 0,316.94 66.29,569.89 198.86,758.84 132.56,188.94 308.56,283.42 528.75,283.42 219.42,0 393.89,-94.48 524.94,-282.66 131.04,-188.19 196.56,-441.13 196.56,-759.6 0,-313.9 -65.52,-565.33 -197.32,-754.27 -131.81,-188.95 -306.28,-283.43 -524.18,-283.43zm0 -617.13c492.94,0 877.69,147.05 1155.78,441.14 277.33,293.32 415.99,700.93 415.99,1221.3 0,522.66 -138.66,930.27 -415.99,1222.07 -278.09,292.57 -662.84,438.85 -1155.78,438.85 -495.23,0 -882.27,-146.28 -1160.36,-438.85 -278.09,-291.8 -417.51,-699.41 -417.51,-1222.07 0,-520.37 139.42,-927.98 418.27,-1221.3 279.62,-294.09 665.89,-441.14 1159.6,-441.14z"/>
   <path class="fil1" d="M13107.21 6949.87l-21.56 275.91c-49.34,-27.04 -100.5,-46.77 -154.23,-59.56 -53.35,-12.43 -113.29,-18.64 -178.7,-18.64 -141.43,0 -250.7,46.05 -327.81,138.14 -77.11,92.09 -115.85,222.56 -115.85,391.77 0,172.12 32.89,303.69 99.04,394.68 66.14,91 161.53,136.68 286.51,136.68 20.83,0 41.66,-1.82 62.86,-5.84 20.83,-4.02 42.39,-10.24 64.68,-19.01l0 -358.87 -195.15 0 0 -256.55 526.25 0 0 813.5c-61.39,26.31 -132.29,46.41 -212.69,60.3 -80.4,13.89 -166.65,20.83 -258.74,20.83 -234.99,0 -416.98,-66.88 -546.72,-200.27 -129.73,-133.39 -194.42,-320.87 -194.42,-562.8 0,-255.45 68.71,-454.26 205.75,-596.05 137.05,-142.16 329.64,-213.06 577.42,-213.06 67.61,0 133.75,5.12 197.34,14.98 63.96,9.87 126.08,24.49 186.02,43.86z"/>
   <path id="1" class="fil1" d="M13995.26 7147.58c-87.71,0 -155.32,46.05 -202.83,138.14 -47.51,92.09 -71.26,222.56 -71.26,391.77 0,169.2 23.75,299.67 71.26,391.4 47.51,91.72 115.12,137.77 202.83,137.77 87.71,0 155.32,-46.05 202.83,-137.77 47.51,-91.73 71.26,-222.2 71.26,-391.4 0,-169.21 -23.75,-299.68 -71.63,-391.77 -47.87,-92.09 -115.48,-138.14 -202.46,-138.14zm0 -256.55c202.83,0 361.07,69.07 474.36,207.58 113.65,138.5 170.3,331.46 170.3,578.88 0,248.5 -56.65,441.46 -170.3,579.24 -113.29,137.77 -271.53,206.48 -474.36,206.48 -204.29,0 -362.53,-68.71 -475.45,-206.12 -112.93,-137.41 -169.21,-330.37 -169.21,-579.6 0,-247.42 56.65,-440.38 170.3,-578.88 113.29,-138.51 271.53,-207.58 474.36,-207.58z"/>
   <path id="2" class="fil1" d="M15206.01 7776.89l0 405.65 84.79 0c85.51,0 147.64,-15.71 186.38,-47.14 38.37,-31.43 57.74,-82.23 57.74,-152.4 0,-73.09 -19,-125.71 -57.38,-157.87 -38,-32.16 -100.5,-48.24 -186.74,-48.24l-84.79 0zm0 -605.19l0 370.57 78.21 0c77.47,0 133.39,-14.26 168.11,-42.76 34.71,-28.51 51.89,-74.92 51.89,-139.24 0,-66.51 -17.54,-114.39 -52.62,-143.99 -35.09,-29.6 -92.83,-44.58 -173.59,-44.58l-72 0zm-333.29 -254.36l467.41 0c169.21,0 294.92,31.43 376.78,94.29 81.87,62.86 122.8,160.07 122.8,291.27 0,93.55 -23.76,169.93 -71.27,229.13 -47.51,59.57 -116.21,97.95 -205.75,115.85 104.52,18.64 182,58.84 233.16,120.97 51.17,62.13 76.75,147.28 76.75,255.82 0,141.43 -44.59,245.95 -133.39,313.19 -88.81,67.61 -227.31,101.23 -415.16,101.23l-451.33 0 0 -1521.75z"/>
   <polygon id="3" class="fil1" points="16098.45,6917.34 16447.09,6917.34 16447.09,8439.09 16098.45,8439.09 "/>
   <polygon id="4" class="fil1" points="16749.32,6917.34 17615.44,6917.34 17615.44,7171.7 17097.96,7171.7 17097.96,7535.69 17586.94,7535.69 17586.94,7790.04 17097.96,7790.04 17097.96,8182.54 17639.56,8182.54 17639.56,8439.09 16749.32,8439.09 "/>
   <path id="5" class="fil1" d="M18231.59 7171.7l0 390.3 73.82 0c86.98,0 149.47,-14.98 187.48,-44.95 37.64,-29.97 56.65,-78.57 56.65,-145.45 0,-73.46 -17.18,-124.98 -51.9,-154.95 -34.72,-29.97 -96.84,-44.95 -186.74,-44.95l-79.31 0zm-342.06 -254.36l359.24 0c18.64,0 37.27,-0.36 56.64,-1.09 19.37,-0.73 29.61,-1.1 31.07,-1.1 193.69,0 334.39,32.52 422.83,97.94 88.07,65.42 132.29,169.57 132.29,312.46 0,93.56 -24.12,170.67 -72.72,231.34 -48.61,60.66 -119.51,102.32 -212.33,125.35 45.68,11.33 81.86,32.89 108.54,64.32 27.04,31.42 54.45,90.63 82.22,177.97l167.02 514.56 -359.98 0 -121.33 -431.23c-21.19,-78.58 -44.95,-130.11 -70.89,-154.59 -26.32,-24.49 -64.69,-36.91 -115.12,-36.91l-65.42 0 0 622.73 -342.06 0 0 -1521.75z"/>
   <polygon id="6" class="fil1" points="19132.44,6917.34 19533.34,6917.34 19991.98,8026.86 19991.98,6917.34 20290.19,6917.34 20290.19,8439.09 19889.29,8439.09 19428.45,7327.38 19428.45,8439.09 19132.44,8439.09 "/>
   <path id="7" class="fil1" d="M21165.09 7147.58c-87.71,0 -155.32,46.05 -202.83,138.14 -47.51,92.09 -71.26,222.56 -71.26,391.77 0,169.2 23.75,299.67 71.26,391.4 47.51,91.72 115.12,137.77 202.83,137.77 87.71,0 155.32,-46.05 202.83,-137.77 47.51,-91.73 71.26,-222.2 71.26,-391.4 0,-169.21 -23.75,-299.68 -71.63,-391.77 -47.87,-92.09 -115.48,-138.14 -202.46,-138.14zm0 -256.55c202.83,0 361.07,69.07 474.36,207.58 113.65,138.5 170.3,331.46 170.3,578.88 0,248.5 -56.65,441.46 -170.3,579.24 -113.29,137.77 -271.53,206.48 -474.36,206.48 -204.29,0 -362.53,-68.71 -475.45,-206.12 -112.93,-137.41 -169.21,-330.37 -169.21,-579.6 0,-247.42 56.65,-440.38 170.3,-578.88 113.29,-138.51 271.53,-207.58 474.36,-207.58z"/>
   <path class="fil2" style="mask:url(#id0)" d="M20545.35 8768.94c492.95,0 877.7,147.02 1155.82,441.12 277.3,293.34 416.01,700.93 416.01,1221.31 0,522.7 -138.71,930.29 -416.01,1222.12 -278.12,292.53 -662.87,438.85 -1155.82,438.85 -495.22,0 -882.24,-146.32 -1160.36,-438.85 -278.11,-291.83 -417.52,-699.42 -417.52,-1222.12 0,-520.38 139.41,-927.97 418.28,-1221.31 279.63,-294.1 665.89,-441.12 1159.6,-441.12zm0 617.13c-218.67,0 -394.63,94.49 -528,282.65 -133.3,188.22 -199.61,439.61 -199.61,755.04 0,316.93 66.31,569.89 198.86,758.86 132.55,188.98 308.57,283.41 528.75,283.41 219.42,0 393.93,-94.43 524.97,-282.65 131.04,-188.17 196.58,-441.12 196.58,-759.62 0,-313.92 -65.54,-565.31 -197.34,-754.28 -131.85,-188.92 -306.3,-283.41 -524.21,-283.41z"/>
   <polygon class="fil2" style="mask:url(#id2)" points="16301.58,8846.63 18719.86,8846.63 18719.86,9482.07 17933.56,9482.07 17933.56,12019.18 17087.88,12019.18 17087.88,9482.07 16301.58,9482.07 "/>
   <path class="fil2" style="mask:url(#id4)" d="M13548.88 8846.63l1260.18 0c420.55,0 732.14,67.82 935.59,204.2 203.44,136.39 304.79,343.61 304.79,621.73 0,205.71 -53.35,374.81 -160.79,507.42 -107.45,132.55 -262.84,220.94 -465.53,265.86 166.89,60.96 300.96,233.95 402.3,519.62l0 2.33 379.41 1051.39 -882.3 0 -278.81 -868.57c-44.98,-139.41 -105.94,-236.17 -182.88,-290.27 -77.69,-53.34 -198.1,-80.02 -361.91,-80.02l-122.67 0 0 1238.86 -827.38 0 0 -3172.55zm827.38 557.69l0 813.73 297.17 0c182.82,0 319.96,-33.53 411.43,-99.78 91.41,-66.31 137.14,-165.33 137.14,-297.93 0,-143.25 -51.08,-248.37 -153.18,-315.43 -101.29,-67.06 -262.83,-100.59 -483.02,-100.59l-209.54 0z"/>
   <polygon class="fil2" style="mask:url(#id6)" points="10756.54,8846.63 12959.92,8846.63 12959.92,9440.93 11602.23,9440.93 11602.23,10080.9 12882.23,10080.9 12882.23,10684.33 11602.23,10684.33 11602.23,11406.64 13010.25,11406.64 13010.25,12019.18 10756.54,12019.18 "/>
   <polygon class="fil2" style="mask:url(#id8)" points="9299.01,8846.63 10144.7,8846.63 10144.7,12019.18 9299.01,12019.18 "/>
   <path class="fil2" style="mask:url(#id10)" d="M6263.6 8846.63l1299.01 0c383.24,0 671.99,68.57 865.55,206.47 193.51,137.9 290.27,342.85 290.27,615.62 0,182.88 -50.27,335.24 -151.61,456.4 -101.35,121.11 -248.37,208.74 -441.93,262.84 217.15,39.63 383.99,124.94 500.56,255.22 116.57,130.29 175.26,296.37 175.26,499.06 0,297.12 -106.69,518.11 -319.26,661.35 -212.57,144 -540.95,215.59 -983.58,215.59l-1234.27 0 0 -3172.55zm827.38 571.41l0 708.6 256.79 0c179.04,0 312.35,-30.51 401.49,-90.66 88.39,-60.2 132.61,-152.42 132.61,-275.85 0,-111.98 -41.9,-196.53 -124.94,-255.22 -83.85,-57.88 -206.53,-86.87 -368.77,-86.87l-297.18 0zm0 1270.87l0 745.16 332.97 0c172.19,0 303.23,-32.02 392.37,-96.76 89.14,-64.79 134.12,-159.28 134.12,-282.7 0,-121.92 -41.15,-213.33 -122.68,-274.29 -81.52,-60.95 -203.44,-91.41 -365.69,-91.41l-371.09 0z"/>
   <path class="fil2" style="mask:url(#id12)" d="M3855.2 8846.63l1020.19 0 1200.75 3172.55 -904.38 0 -225.53 -671.99 -1220.55 0 -236.92 671.99 -836.56 0 1203 -3172.55zm492.96 707.79l-410.67 1189.35 808.38 0 -397.71 -1189.35z"/>
  </g>
  <path class="fil3" d="M26964.5 10185.94l-3658.41 754.49c6.08,57.43 9.42,115.63 9.42,174.72 0,395.63 -140.79,758.4 -374.75,1041l2898.62 2357.73c687.26,-839.57 1464.55,-2381.4 1125.12,-4327.94z"/>
  <path class="fil4" d="M20453.22 12189.79l-1897.35 1489.9c1766.98,2100.44 4701.77,1759.11 6083.57,158.02l-1859.96 -1512.81c-289.9,263.06 -674.78,423.34 -1097.06,423.34 -490.4,0 -929.85,-216.34 -1229.2,-558.45z"/>
  <path class="fil5" d="M26315.48 10148.89c-158.1,-741.84 -491.68,-1431.88 -964.98,-2014.03l-2400.48 1951.01c160.08,196.88 275.23,431.81 329.81,689.04l3035.65 -626.02z"/>
  <path class="fil6" d="M22839.96 9963.24l2900.1 -2357.06c-785.97,-925.25 -1811.82,-1490.7 -2904.11,-1739.54l-835.11 3646.62c324.63,64.22 614.62,224.39 839.12,449.98z"/>
 </g>
</svg>
