<?xml version="1.0" encoding="UTF-8"?>
<!DOCTYPE svg PUBLIC "-//W3C//DTD SVG 1.1//EN" "http://www.w3.org/Graphics/SVG/1.1/DTD/svg11.dtd">
<!-- Creator: CorelDRAW 2020 (64-Bit) -->
<svg xmlns="http://www.w3.org/2000/svg" xml:space="preserve" width="619px" height="619px" version="1.1" style="shape-rendering:geometricPrecision; text-rendering:geometricPrecision; image-rendering:optimizeQuality; fill-rule:evenodd; clip-rule:evenodd"
viewBox="0 0 11.9 11.9"
 xmlns:xlink="http://www.w3.org/1999/xlink"
 xmlns:xodm="http://www.corel.com/coreldraw/odm/2003">
 <defs>
  <style type="text/css">
   <![CDATA[
    .fil0 {fill:#FEFFFF}
    .fil1 {fill:#007BB9}
   ]]>
  </style>
 </defs>
 <g id="Capa_x0020_1">
  <metadata id="CorelCorpID_0Corel-Layer"/>
  <path class="fil0" d="M8.25 6.01l0.61 0 -0.09 -0.06c-0.13,-0.12 0,-0.23 0.09,-0.29l-0.61 0c0.05,0.05 0.12,0.06 0.13,0.18 0,0.11 -0.12,0.16 -0.12,0.16 0,0 -0.01,0.01 -0.01,0.01z"/>
  <path class="fil0" d="M7.56 6.01l0.62 0c-0.06,-0.04 -0.22,-0.14 -0.09,-0.28 0.01,-0.02 0.02,-0.03 0.04,-0.04l0.04 -0.03 -0.61 0c0.07,0.04 0.14,0.06 0.14,0.18 0,0.1 -0.07,0.13 -0.14,0.17z"/>
  <g id="_2118444532960">
   <path class="fil1" d="M0.6 1.31l0 8.6c-0.67,0 -0.6,-0.07 -0.6,0.67 0,0.68 0.64,1.31 1.32,1.31l6.88 0c0.67,0 1.32,-0.64 1.32,-1.31l0 -8.2 2.18 0c0.12,0 0.2,-0.08 0.2,-0.2l0 -0.87c0,-0.67 -0.64,-1.31 -1.32,-1.31l-8.67 0c-0.67,0 -1.31,0.64 -1.31,1.31zm8.92 0.67l1.98 0c0,-0.41 0.05,-0.82 -0.16,-1.13 -0.41,-0.61 -1.25,-0.61 -1.67,0 -0.2,0.31 -0.15,0.72 -0.15,1.13zm-8.25 -0.09l-0.02 8.42c-0.44,0 -0.68,0 -0.85,0 0.02,0.81 0.38,1.12 0.92,1.18l6.03 0.01c1.47,0 1.72,-0.56 1.72,-1.5l0 -7.18c0.01,-1.42 -0.05,-1.69 0.24,-2.08l-6.9 0c-0.59,0 -1.14,0.56 -1.14,1.15z"/>
   <path class="fil1" d="M9.72 3.32l0 7.38c0,0.12 0.42,0.78 0.53,0.96 0.31,0.53 0.47,0.09 0.71,-0.31 0.06,-0.1 0.34,-0.53 0.34,-0.65l0 -5.55 0.2 0 0 2.38 0.4 0 0 -2.57c0,-0.26 -0.3,-0.2 -0.6,-0.2l0 -1.44c0,-0.27 -0.27,-0.54 -0.54,-0.54l-0.5 0c-0.27,0 -0.54,0.27 -0.54,0.54zm0.39 6.79l0.79 0 0.01 -5.75 -0.8 0 0 5.75zm0.21 -6.8l0.38 0c0.12,0 0.21,0.1 0.21,0.21l0 0.58c0,-0.01 -0.8,0 -0.8,-0.01l0 -0.57c0,-0.11 0.09,-0.21 0.21,-0.21zm-0.2 7.47l0 -0.13 0.79 0 0 0.12 -0.39 0.65 -0.4 -0.64z"/>
   <polygon class="fil1" points="1.98,4.76 8.13,4.76 8.13,4.36 1.98,4.36 "/>
   <polygon class="fil1" points="1.98,6.74 8.13,6.74 8.13,6.34 1.98,6.34 "/>
   <polygon class="fil1" points="1.98,7.73 8.13,7.73 8.13,7.33 1.98,7.33 "/>
   <polygon class="fil1" points="3.17,3.77 8.13,3.77 8.13,3.37 3.17,3.37 "/>
   <polygon class="fil1" points="3.97,1.78 8.13,1.78 8.13,1.39 3.97,1.39 "/>
   <polygon class="fil1" points="1.98,5.75 5.55,5.75 5.55,5.35 1.98,5.35 "/>
   <polygon class="fil1" points="5.55,2.78 8.13,2.78 8.13,2.38 5.55,2.38 "/>
   <polygon class="fil1" points="5.95,5.75 8.13,5.75 8.13,5.35 5.95,5.35 "/>
   <polygon class="fil1" points="1.98,2.78 3.97,2.78 3.97,2.38 1.98,2.38 "/>
   <polygon class="fil1" points="4.36,2.78 5.16,2.78 5.16,2.38 4.36,2.38 "/>
   <polygon class="fil1" points="1.98,3.77 2.78,3.77 2.78,3.37 1.98,3.37 "/>
  </g>
 </g>
</svg>
