<?xml version="1.0" encoding="UTF-8"?>
<!DOCTYPE svg PUBLIC "-//W3C//DTD SVG 1.1//EN" "http://www.w3.org/Graphics/SVG/1.1/DTD/svg11.dtd">
<!-- Creator: CorelDRAW 2020 (64-Bit) -->
<svg xmlns="http://www.w3.org/2000/svg" xml:space="preserve" width="569px" height="632px" version="1.1" style="shape-rendering:geometricPrecision; text-rendering:geometricPrecision; image-rendering:optimizeQuality; fill-rule:evenodd; clip-rule:evenodd"
viewBox="0 0 7.82 8.68"
 xmlns:xlink="http://www.w3.org/1999/xlink"
 xmlns:xodm="http://www.corel.com/coreldraw/odm/2003">
 <defs>
  <style type="text/css">
   <![CDATA[
    .fil0 {fill:#FEFFFF}
    .fil1 {fill:#007BB9}
   ]]>
  </style>
 </defs>
 <g id="Capa_x0020_1">
  <metadata id="CorelCorpID_0Corel-Layer"/>
  <path class="fil0" d="M5.2 4.75l0.46 0 -0.07 -0.05c-0.09,-0.09 0,-0.17 0.07,-0.22l-0.46 0c0.05,0.04 0.1,0.05 0.1,0.14 0,0.08 -0.09,0.12 -0.09,0.12 0,0 0,0.01 -0.01,0.01z"/>
  <path class="fil0" d="M4.69 4.75l0.47 0c-0.05,-0.03 -0.17,-0.11 -0.07,-0.22 0.01,-0.01 0.02,-0.01 0.03,-0.02l0.03 -0.03 -0.46 0c0.05,0.04 0.11,0.05 0.11,0.14 0,0.08 -0.06,0.1 -0.11,0.13z"/>
  <g id="_2118463493360">
   <path class="fil1" d="M6.44 7.32c0.11,0.1 0.13,0.23 0.21,0.31l0.55 0c0,-0.12 0.27,-1.43 0.3,-1.57l0.32 -1.57 -2.91 0 0 0.39 2.34 0 -0.53 2.45 -0.28 -0.01z"/>
   <path class="fil1" d="M3.16 7.62c0.04,-0.07 0.09,-0.18 0.2,-0.29l-0.3 0c-0.12,-0.65 -0.3,-1.54 -0.49,-2.44l0.76 -0.01 1.6 0 0 -0.39 -2.4 0.01 -0.53 0c0.03,0.05 0.27,1.37 0.31,1.56l0.23 1.16c0.02,0.08 0.03,0.13 0.04,0.2 0.01,0.07 0.04,0.14 0.04,0.21l0.54 -0.01zm1.23 -0.29c0.12,0.11 0.18,0.23 0.2,0.3l0.64 0 0.19 -0.31c-0.17,0 -0.86,0.01 -1.03,0.01z"/>
   <path class="fil1" d="M2 4.5l0.53 0 -0.52 -2.07 -2.01 0 0 0.52 1.6 0c0.06,0.25 0.39,1.43 0.4,1.55z"/>
   <polygon class="fil1" points="5.68,3.98 7.23,3.98 7.23,3.46 5.68,3.46 "/>
   <path class="fil1" d="M3.87 6.05c0,0.3 0.05,0.47 0.26,0.69 0.58,0.59 1.62,0.04 1.45,-0.8 -0.04,-0.19 -0.13,-0.35 -0.28,-0.47 -0.6,-0.54 -1.43,-0.01 -1.43,0.58zm0.78 -0.6c-0.34,0.04 -0.64,0.34 -0.59,0.75 0.04,0.34 0.35,0.63 0.75,0.58 0.34,-0.04 0.63,-0.35 0.59,-0.74 -0.04,-0.34 -0.35,-0.64 -0.75,-0.59z"/>
   <path class="fil1" d="M4.63 5.64c-0.02,0.04 -0.09,0.04 -0.15,0.14 -0.19,0.33 0.31,0.42 0.34,0.51 0.02,0.12 -0.16,0.17 -0.18,0.02l-0.2 0c0.01,0.1 0.04,0.18 0.12,0.23 0.08,0.05 0.07,0.02 0.07,0.15l0.2 0 0 -0.09c0.02,-0.07 0.14,-0.06 0.18,-0.23 0.07,-0.29 -0.33,-0.34 -0.37,-0.43 -0.03,-0.08 0.11,-0.17 0.18,-0.06l0.02 0.04 0.18 0c-0.01,-0.07 -0.03,-0.13 -0.06,-0.18 -0.11,-0.13 -0.13,0 -0.14,-0.2l-0.18 0 -0.01 0.1z"/>
   <path class="fil1" d="M5.23 2.19l-1.47 1.46c-0.11,0.11 -0.28,0.13 -0.37,0.04l0 0c-0.09,-0.09 -0.08,-0.26 0.04,-0.38 0.49,-0.48 0.98,-0.97 1.46,-1.45 0.05,0.05 0.19,0.18 0.34,0.33z"/>
   <path class="fil1" d="M7.12 1.74l-1.2 1.18c-0.1,0.1 -0.25,0.1 -0.34,0l0 0c-0.09,-0.09 -0.09,-0.24 0.01,-0.33 0.4,-0.4 0.79,-0.79 1.19,-1.19 0.05,0.05 0.19,0.19 0.34,0.34z"/>
   <path class="fil1" d="M5.69 0.34l-1.2 1.18c-0.09,0.09 -0.24,0.09 -0.33,0l0 0c-0.09,-0.09 -0.09,-0.24 0,-0.34 0.4,-0.39 0.8,-0.79 1.2,-1.18 0.05,0.05 0.19,0.19 0.33,0.34z"/>
   <path class="fil1" d="M5.42 0.18l1.54 1.55 -1.11 1.1 -1.53 -1.55 1.1 -1.1zm0.17 0.63l0.74 0.75c0.09,0.09 0.09,0.24 0,0.34l-0.31 0.3c-0.09,0.09 -0.24,0.09 -0.33,0l-0.75 -0.75c-0.09,-0.09 -0.09,-0.24 0.01,-0.33l0.3 -0.31c0.1,-0.09 0.25,-0.09 0.34,0z"/>
   <path class="fil1" d="M3.88 7.12c0.42,0 0.76,0.35 0.76,0.78 0,0.43 -0.34,0.78 -0.76,0.78 -0.43,0 -0.77,-0.35 -0.77,-0.78 0,-0.43 0.34,-0.78 0.77,-0.78zm0 0.52c0.14,0 0.26,0.12 0.26,0.26 0,0.15 -0.12,0.26 -0.26,0.26 -0.15,0 -0.26,-0.11 -0.26,-0.26 0,-0.14 0.11,-0.26 0.26,-0.26z"/>
   <path class="fil1" d="M5.93 7.12c0.42,0 0.77,0.35 0.77,0.78 0,0.43 -0.35,0.78 -0.77,0.78 -0.42,0 -0.76,-0.35 -0.76,-0.78 0,-0.43 0.34,-0.78 0.76,-0.78zm0 0.52c0.14,0 0.26,0.11 0.26,0.26 0,0.15 -0.12,0.26 -0.26,0.26 -0.14,0 -0.26,-0.11 -0.26,-0.26 0,-0.15 0.12,-0.26 0.26,-0.26z"/>
  </g>
 </g>
</svg>
