<svg xmlns="http://www.w3.org/2000/svg" xmlns:xlink="http://www.w3.org/1999/xlink" width="1920" zoomAndPan="magnify" viewBox="0 0 1440 809.999993" height="1080" preserveAspectRatio="xMidYMid meet" version="1.0"><path fill="#007bb9" d="M 1012.496094 358.925781 C 1018.847656 358.925781 1024 353.757812 1024 347.417969 L 1024 166.917969 C 1024 152.324219 1012.113281 140.453125 997.539062 140.453125 L 952.40625 140.453125 L 952.40625 104.796875 C 952.40625 90.203125 940.554688 78.332031 925.941406 78.332031 L 879.324219 78.332031 L 879.324219 42.675781 C 879.324219 28.085938 867.457031 16.199219 852.859375 16.199219 L 535.246094 16.199219 C 528.898438 16.199219 523.742188 21.363281 523.742188 27.707031 C 523.742188 34.058594 528.898438 39.210938 535.246094 39.210938 L 852.859375 39.210938 C 854.757812 39.210938 856.308594 40.765625 856.308594 42.679688 L 856.308594 643.082031 C 856.308594 645 854.757812 646.550781 852.859375 646.550781 C 824.316406 646.550781 457.113281 646.550781 442.464844 646.550781 C 440.554688 646.550781 439.011719 645 439.011719 643.082031 L 439.011719 42.675781 C 439.011719 40.761719 440.554688 39.210938 442.464844 39.210938 L 489.222656 39.210938 C 495.570312 39.210938 500.730469 34.058594 500.730469 27.703125 C 500.730469 21.363281 495.570312 16.195312 489.222656 16.195312 L 442.464844 16.195312 C 427.878906 16.195312 416 28.082031 416 42.675781 L 416 643.078125 C 416 657.691406 427.878906 669.5625 442.464844 669.5625 L 489.089844 669.5625 L 489.089844 705.21875 C 489.089844 719.8125 500.941406 731.679688 515.535156 731.679688 L 560.667969 731.679688 L 560.667969 767.339844 C 560.667969 781.933594 572.539062 793.800781 587.132812 793.800781 L 997.539062 793.800781 C 1012.113281 793.800781 1024 781.933594 1024 767.339844 L 1024 393.441406 C 1024 387.085938 1018.847656 381.933594 1012.496094 381.933594 C 1006.121094 381.933594 1000.988281 387.085938 1000.988281 393.441406 L 1000.988281 767.339844 C 1000.988281 769.253906 999.433594 770.789062 997.535156 770.789062 L 587.128906 770.789062 C 585.230469 770.789062 583.679688 769.253906 583.679688 767.339844 L 583.679688 731.679688 L 925.9375 731.679688 C 940.550781 731.679688 952.402344 719.8125 952.402344 705.21875 L 952.402344 546.082031 C 952.402344 539.742188 947.25 534.589844 940.894531 534.589844 C 934.539062 534.589844 929.386719 539.742188 929.386719 546.082031 L 929.386719 705.21875 C 929.386719 707.117188 927.851562 708.667969 925.9375 708.667969 C 914.992188 708.667969 526.59375 708.667969 515.535156 708.667969 C 513.625 708.667969 512.089844 707.117188 512.089844 705.21875 L 512.089844 669.5625 L 852.855469 669.5625 C 867.449219 669.5625 879.320312 657.691406 879.320312 643.082031 C 879.320312 626.292969 879.320312 127.941406 879.320312 101.347656 L 925.9375 101.347656 C 927.851562 101.347656 929.386719 102.898438 929.386719 104.796875 L 929.386719 500.074219 C 929.386719 506.429688 934.539062 511.578125 940.894531 511.578125 C 947.25 511.578125 952.402344 506.429688 952.402344 500.074219 L 952.402344 163.464844 L 997.535156 163.464844 C 999.433594 163.464844 1000.984375 165.019531 1000.984375 166.917969 L 1000.984375 347.417969 C 1000.988281 353.757812 1006.121094 358.925781 1012.496094 358.925781 Z M 1012.496094 358.925781 " fill-opacity="1" fill-rule="nonzero"/><path fill="#007bb9" d="M 712.585938 130.105469 C 712.585938 94.316406 683.464844 65.195312 647.667969 65.195312 C 611.871094 65.195312 582.75 94.316406 582.75 130.105469 C 582.75 165.914062 611.871094 195.03125 647.667969 195.03125 C 683.464844 195.03125 712.585938 165.910156 712.585938 130.105469 Z M 605.761719 130.105469 C 605.761719 106.992188 624.554688 88.207031 647.667969 88.207031 C 670.777344 88.207031 689.574219 107.007812 689.574219 130.105469 C 689.574219 153.207031 670.777344 172.019531 647.667969 172.019531 C 624.554688 172.019531 605.761719 153.207031 605.761719 130.105469 Z M 605.761719 130.105469 " fill-opacity="1" fill-rule="nonzero"/><path fill="#007bb9" d="M 804.671875 141.609375 C 811.03125 141.609375 816.179688 136.460938 816.179688 130.105469 C 816.179688 123.746094 811.03125 118.597656 804.671875 118.597656 L 750.722656 118.597656 C 744.367188 118.597656 739.214844 123.746094 739.214844 130.105469 C 739.214844 136.460938 744.367188 141.609375 750.722656 141.609375 Z M 804.671875 141.609375 " fill-opacity="1" fill-rule="nonzero"/><path fill="#007bb9" d="M 544.617188 118.597656 L 490.667969 118.597656 C 484.3125 118.597656 479.160156 123.75 479.160156 130.105469 C 479.160156 136.460938 484.308594 141.613281 490.667969 141.613281 L 544.617188 141.613281 C 550.972656 141.613281 556.121094 136.460938 556.121094 130.105469 C 556.121094 123.75 550.972656 118.597656 544.617188 118.597656 Z M 544.617188 118.597656 " fill-opacity="1" fill-rule="nonzero"/><path fill="#007bb9" d="M 505.761719 239.320312 C 505.761719 245.679688 510.90625 250.828125 517.261719 250.828125 L 778.078125 250.828125 C 784.433594 250.828125 789.585938 245.679688 789.585938 239.320312 C 789.585938 232.949219 784.433594 227.8125 778.078125 227.8125 L 517.261719 227.8125 C 510.90625 227.816406 505.761719 232.949219 505.761719 239.320312 Z M 505.761719 239.320312 " fill-opacity="1" fill-rule="nonzero"/><path fill="#007bb9" d="M 778.0625 283.597656 L 517.261719 283.597656 C 510.90625 283.597656 505.761719 288.75 505.761719 295.105469 C 505.761719 301.460938 510.90625 306.609375 517.261719 306.609375 L 778.0625 306.609375 C 784.433594 306.609375 789.582031 301.460938 789.582031 295.105469 C 789.582031 288.746094 784.433594 283.597656 778.0625 283.597656 Z M 778.0625 283.597656 " fill-opacity="1" fill-rule="nonzero"/><path fill="#007bb9" d="M 778.0625 339.394531 L 517.261719 339.394531 C 510.90625 339.394531 505.761719 344.542969 505.761719 350.902344 C 505.761719 357.257812 510.90625 362.402344 517.261719 362.402344 L 778.0625 362.402344 C 784.433594 362.402344 789.582031 357.257812 789.582031 350.902344 C 789.582031 344.542969 784.433594 339.394531 778.0625 339.394531 Z M 778.0625 339.394531 " fill-opacity="1" fill-rule="nonzero"/><path fill="#007bb9" d="M 778.0625 395.191406 L 517.261719 395.191406 C 510.90625 395.191406 505.761719 400.34375 505.761719 406.699219 C 505.761719 413.058594 510.90625 418.207031 517.261719 418.207031 L 778.0625 418.207031 C 784.433594 418.207031 789.582031 413.054688 789.582031 406.699219 C 789.582031 400.34375 784.433594 395.191406 778.0625 395.191406 Z M 778.0625 395.191406 " fill-opacity="1" fill-rule="nonzero"/><path fill="#007bb9" d="M 778.0625 450.992188 L 517.261719 450.992188 C 510.90625 450.992188 505.761719 456.128906 505.761719 462.5 C 505.761719 468.855469 510.90625 474.007812 517.261719 474.007812 L 778.0625 474.007812 C 784.433594 474.007812 789.582031 468.855469 789.582031 462.5 C 789.582031 456.128906 784.433594 450.992188 778.0625 450.992188 Z M 778.0625 450.992188 " fill-opacity="1" fill-rule="nonzero"/><path fill="#007bb9" d="M 783.0625 509.382812 C 778.144531 505.355469 770.898438 506.082031 766.867188 510.984375 L 711.941406 577.976562 L 686.480469 553.015625 C 681.9375 548.574219 674.660156 548.660156 670.210938 553.195312 C 665.761719 557.71875 665.835938 565.015625 670.375 569.457031 L 698.886719 597.40625 C 706.890625 605.246094 719.90625 604.554688 727.019531 595.871094 L 784.664062 525.578125 C 788.691406 520.675781 787.964844 513.410156 783.0625 509.382812 Z M 783.0625 509.382812 " fill-opacity="1" fill-rule="nonzero"/></svg>