<svg xmlns="http://www.w3.org/2000/svg" xmlns:xlink="http://www.w3.org/1999/xlink" width="2000" zoomAndPan="magnify" viewBox="0 0 1500 1499.999933" height="2000" preserveAspectRatio="xMidYMid meet" version="1.0"><path fill="#007bb9" d="M 1291.65625 664.675781 C 1303.425781 664.675781 1312.964844 655.105469 1312.964844 643.363281 L 1312.964844 309.105469 C 1312.964844 282.082031 1290.953125 260.101562 1263.960938 260.101562 L 1180.378906 260.101562 L 1180.378906 194.066406 C 1180.378906 167.042969 1158.433594 145.0625 1131.375 145.0625 L 1045.042969 145.0625 L 1045.042969 79.03125 C 1045.042969 52.007812 1023.066406 29.996094 996.039062 29.996094 L 407.863281 29.996094 C 396.109375 29.996094 386.554688 39.5625 386.554688 51.304688 C 386.554688 63.074219 396.109375 72.613281 407.863281 72.613281 L 996.035156 72.613281 C 999.550781 72.613281 1002.425781 75.488281 1002.425781 79.035156 L 1002.425781 1190.894531 C 1002.425781 1194.445312 999.550781 1197.316406 996.035156 1197.316406 C 943.183594 1197.316406 263.175781 1197.316406 236.042969 1197.316406 C 232.511719 1197.316406 229.652344 1194.445312 229.652344 1190.894531 L 229.652344 79.03125 C 229.652344 75.484375 232.511719 72.613281 236.042969 72.613281 L 322.636719 72.613281 C 334.390625 72.613281 343.945312 63.070312 343.945312 51.304688 C 343.945312 39.5625 334.390625 29.992188 322.636719 29.992188 L 236.042969 29.992188 C 209.035156 29.992188 187.039062 52.003906 187.039062 79.027344 L 187.039062 1190.890625 C 187.039062 1217.945312 209.035156 1239.925781 236.042969 1239.925781 L 322.390625 1239.925781 L 322.390625 1305.960938 C 322.390625 1332.984375 344.335938 1354.964844 371.363281 1354.964844 L 454.945312 1354.964844 L 454.945312 1420.996094 C 454.945312 1448.023438 476.925781 1470.003906 503.949219 1470.003906 L 1263.960938 1470.003906 C 1290.953125 1470.003906 1312.964844 1448.023438 1312.964844 1420.996094 L 1312.964844 728.59375 C 1312.964844 716.824219 1303.425781 707.285156 1291.65625 707.285156 C 1279.855469 707.285156 1270.347656 716.824219 1270.347656 728.59375 L 1270.347656 1420.996094 C 1270.347656 1424.546875 1267.472656 1427.386719 1263.957031 1427.386719 L 503.945312 1427.386719 C 500.429688 1427.386719 497.554688 1424.546875 497.554688 1420.996094 L 497.554688 1354.964844 L 1131.367188 1354.964844 C 1158.425781 1354.964844 1180.375 1332.984375 1180.375 1305.960938 L 1180.375 1011.261719 C 1180.375 999.523438 1170.832031 989.980469 1159.066406 989.980469 C 1147.296875 989.980469 1137.757812 999.523438 1137.757812 1011.261719 L 1137.757812 1305.960938 C 1137.757812 1309.476562 1134.910156 1312.351562 1131.367188 1312.351562 C 1111.097656 1312.351562 391.839844 1312.351562 371.359375 1312.351562 C 367.828125 1312.351562 364.984375 1309.476562 364.984375 1305.960938 L 364.984375 1239.929688 L 996.03125 1239.929688 C 1023.058594 1239.929688 1045.035156 1217.949219 1045.035156 1190.890625 C 1045.035156 1159.804688 1045.035156 236.929688 1045.035156 187.679688 L 1131.367188 187.679688 C 1134.910156 187.679688 1137.757812 190.554688 1137.757812 194.070312 L 1137.757812 926.0625 C 1137.757812 937.828125 1147.296875 947.371094 1159.066406 947.371094 C 1170.832031 947.371094 1180.375 937.828125 1180.375 926.0625 L 1180.375 302.714844 L 1263.953125 302.714844 C 1267.46875 302.714844 1270.34375 305.589844 1270.34375 309.105469 L 1270.34375 643.363281 C 1270.347656 655.105469 1279.855469 664.675781 1291.65625 664.675781 Z M 1291.65625 664.675781 " fill-opacity="1" fill-rule="nonzero"/><path fill="#007bb9" d="M 736.269531 240.9375 C 736.269531 174.65625 682.34375 120.730469 616.050781 120.730469 C 549.757812 120.730469 495.832031 174.660156 495.832031 240.9375 C 495.832031 307.246094 549.757812 361.171875 616.050781 361.171875 C 682.34375 361.171875 736.269531 307.242188 736.269531 240.9375 Z M 538.445312 240.9375 C 538.445312 198.136719 573.253906 163.347656 616.050781 163.347656 C 658.847656 163.347656 693.652344 198.164062 693.652344 240.9375 C 693.652344 283.71875 658.847656 318.554688 616.050781 318.554688 C 573.253906 318.554688 538.445312 283.714844 538.445312 240.9375 Z M 538.445312 240.9375 " fill-opacity="1" fill-rule="nonzero"/><path fill="#007bb9" d="M 906.800781 262.242188 C 918.574219 262.242188 928.109375 252.703125 928.109375 240.933594 C 928.109375 229.160156 918.574219 219.625 906.800781 219.625 L 806.894531 219.625 C 795.125 219.625 785.585938 229.160156 785.585938 240.933594 C 785.585938 252.703125 795.125 262.242188 806.894531 262.242188 Z M 906.800781 262.242188 " fill-opacity="1" fill-rule="nonzero"/><path fill="#007bb9" d="M 425.214844 219.628906 L 325.308594 219.628906 C 313.539062 219.628906 304 229.164062 304 240.9375 C 304 252.703125 313.535156 262.246094 325.308594 262.246094 L 425.214844 262.246094 C 436.984375 262.246094 446.523438 252.703125 446.523438 240.9375 C 446.519531 229.164062 436.984375 219.628906 425.214844 219.628906 Z M 425.214844 219.628906 " fill-opacity="1" fill-rule="nonzero"/><path fill="#007bb9" d="M 353.265625 443.1875 C 353.265625 454.957031 362.785156 464.496094 374.558594 464.496094 L 857.554688 464.496094 C 869.320312 464.496094 878.863281 454.957031 878.863281 443.1875 C 878.863281 431.386719 869.320312 421.878906 857.554688 421.878906 L 374.558594 421.878906 C 362.785156 421.882812 353.265625 431.386719 353.265625 443.1875 Z M 353.265625 443.1875 " fill-opacity="1" fill-rule="nonzero"/><path fill="#007bb9" d="M 857.519531 525.179688 L 374.558594 525.179688 C 362.789062 525.179688 353.265625 534.71875 353.265625 546.488281 C 353.265625 558.261719 362.785156 567.796875 374.558594 567.796875 L 857.519531 567.796875 C 869.320312 567.796875 878.859375 558.261719 878.859375 546.488281 C 878.859375 534.71875 869.320312 525.179688 857.519531 525.179688 Z M 857.519531 525.179688 " fill-opacity="1" fill-rule="nonzero"/><path fill="#007bb9" d="M 857.519531 628.507812 L 374.558594 628.507812 C 362.789062 628.507812 353.265625 638.046875 353.265625 649.816406 C 353.265625 661.585938 362.785156 671.113281 374.558594 671.113281 L 857.519531 671.113281 C 869.320312 671.113281 878.859375 661.585938 878.859375 649.816406 C 878.859375 638.046875 869.320312 628.507812 857.519531 628.507812 Z M 857.519531 628.507812 " fill-opacity="1" fill-rule="nonzero"/><path fill="#007bb9" d="M 857.519531 731.835938 L 374.558594 731.835938 C 362.789062 731.835938 353.265625 741.375 353.265625 753.144531 C 353.265625 764.921875 362.785156 774.457031 374.558594 774.457031 L 857.519531 774.457031 C 869.320312 774.457031 878.859375 764.917969 878.859375 753.144531 C 878.859375 741.375 869.320312 731.835938 857.519531 731.835938 Z M 857.519531 731.835938 " fill-opacity="1" fill-rule="nonzero"/><path fill="#007bb9" d="M 857.519531 835.171875 L 374.558594 835.171875 C 362.789062 835.171875 353.265625 844.683594 353.265625 856.480469 C 353.265625 868.253906 362.785156 877.792969 374.558594 877.792969 L 857.519531 877.792969 C 869.320312 877.792969 878.859375 868.253906 878.859375 856.480469 C 878.859375 844.683594 869.320312 835.171875 857.519531 835.171875 Z M 857.519531 835.171875 " fill-opacity="1" fill-rule="nonzero"/><path fill="#007bb9" d="M 866.785156 943.300781 C 857.675781 935.84375 844.253906 937.1875 836.792969 946.265625 L 735.078125 1070.324219 L 687.925781 1024.101562 C 679.515625 1015.878906 666.035156 1016.035156 657.796875 1024.4375 C 649.558594 1032.8125 649.695312 1046.324219 658.101562 1054.546875 L 710.898438 1106.308594 C 725.722656 1120.828125 749.828125 1119.542969 763 1103.460938 L 869.75 973.292969 C 877.207031 964.210938 875.863281 950.761719 866.785156 943.300781 Z M 866.785156 943.300781 " fill-opacity="1" fill-rule="nonzero"/></svg>