<?xml version="1.0" encoding="UTF-8"?>
<!DOCTYPE svg PUBLIC "-//W3C//DTD SVG 1.1//EN" "http://www.w3.org/Graphics/SVG/1.1/DTD/svg11.dtd">
<!-- Creator: CorelDRAW 2020 (64-Bit) -->
<svg xmlns="http://www.w3.org/2000/svg" xml:space="preserve" width="636px" height="636px" version="1.1" style="shape-rendering:geometricPrecision; text-rendering:geometricPrecision; image-rendering:optimizeQuality; fill-rule:evenodd; clip-rule:evenodd"
viewBox="0 0 14.62 14.62"
 xmlns:xlink="http://www.w3.org/1999/xlink"
 xmlns:xodm="http://www.corel.com/coreldraw/odm/2003">
 <defs>
  <style type="text/css">
   <![CDATA[
    .fil0 {fill:#FEFFFF}
    .fil1 {fill:#007BB9}
   ]]>
  </style>
 </defs>
 <g id="Capa_x0020_1">
  <metadata id="CorelCorpID_0Corel-Layer"/>
  <path class="fil0" d="M10.58 7.62l0.76 0 -0.11 -0.08c-0.16,-0.15 0,-0.29 0.11,-0.37l-0.76 0c0.07,0.06 0.16,0.08 0.16,0.22 0,0.15 -0.15,0.21 -0.15,0.21 0,0 -0.01,0.01 -0.01,0.02z"/>
  <path class="fil0" d="M9.72 7.62l0.78 0c-0.07,-0.06 -0.28,-0.19 -0.12,-0.36 0.01,-0.02 0.03,-0.03 0.06,-0.05l0.05 -0.04 -0.76 0c0.08,0.06 0.17,0.08 0.17,0.22 0,0.14 -0.1,0.17 -0.18,0.23z"/>
  <g id="_2118450041168">
   <path class="fil1" d="M1.68 7.77l0 2.76c0,0.31 0.09,0.63 0.32,0.69 -0.06,0.68 -0.07,0.65 0.56,1.29 1.12,1.12 0.91,0.9 2.45,1.4 0.51,0.17 0.42,0.16 0.93,0.16 0.16,0 0.2,-0.04 0.34,-0.05 0.14,0.09 0.26,0.26 0.42,0.38 0.2,0.14 0.38,0.2 0.56,0.22l0.18 0c0.2,-0.02 0.41,-0.07 0.63,-0.13 0.55,-0.14 1.2,-0.24 1.65,-0.55 0.33,-0.22 0.97,-0.67 1.15,-1.04 0.09,-0.2 0.09,-0.37 0.09,-0.65l1.28 -0.44c0.48,-0.17 0.69,-0.38 0.69,-1.02l0 -1.97c0,-0.93 -0.76,-0.74 -1.11,-0.71 -0.3,0.02 -0.61,0.06 -0.87,0.02 -0.33,-0.06 -0.63,-0.32 -0.92,-0.54l-0.88 -0.58c-0.94,-0.58 -1.72,-0.44 -2.95,-0.44 -0.35,0 -0.6,0.15 -0.78,0.4 -0.08,0.12 -0.04,0.14 -0.22,0.17 -0.21,0.04 -0.45,0.06 -0.68,0.09 -0.85,0.11 -1.23,-0.09 -2.07,-0.21 -0.48,-0.06 -0.77,0.24 -0.77,0.75zm10.24 0.82c-0.29,0.03 -0.66,0.08 -0.94,0.05 -0.15,-0.02 -0.28,-0.06 -0.41,-0.11 -0.12,-0.04 -0.24,-0.13 -0.35,-0.15 -0.02,-0.04 -0.01,-0.02 -0.04,-0.05 -0.03,-0.03 -0.04,-0.04 -0.07,-0.06 -0.33,-0.27 -0.49,-0.35 -0.85,-0.6 -0.29,-0.2 -0.71,-0.51 -1.14,-0.56 -0.2,-0.05 -1.82,-0.07 -2.03,-0.04 -0.24,0.04 -0.47,0.52 -0.64,0.78 -0.29,0.46 0.06,0.77 0.49,0.43 0.1,-0.08 0.3,-0.22 0.38,-0.31 0.01,-0.21 -0.03,-0.43 0.19,-0.47 0.25,-0.05 0.3,0.14 0.31,0.35 1,0 0.75,0.03 1.41,0.56l1.05 0.92c0.17,0.17 0.6,0.95 0.76,1.22 0.11,0.18 0.68,1.17 0.75,1.23l0.93 -0.33c0.87,-0.16 0.7,-0.39 0.7,-1.09 0,-0.34 0.04,-1.55 -0.02,-1.78 -0.15,-0.04 -0.31,-0.01 -0.48,0.01zm-7.59 4.56c0,0 0,0 0,0 0,0 0,0 0,0zm-1.27 -1.23c0,-0.01 -0.01,-0.02 -0.02,-0.02 0.01,0 0.02,0.01 0.02,0.02zm-0.02 -0.04c-0.01,-0.01 -0.01,-0.02 -0.02,-0.03 0.01,0.01 0.01,0.02 0.02,0.03zm-0.04 -0.07c0,-0.01 -0.01,-0.02 -0.01,-0.03 0,0.01 0.01,0.02 0.01,0.03zm-0.03 -0.07c0,-0.02 -0.01,-0.03 -0.01,-0.05 0,0.02 0.01,0.03 0.01,0.05zm-0.01 -0.05c-0.01,-0.02 -0.01,-0.04 -0.02,-0.07l0 0c0.01,0.03 0.01,0.05 0.02,0.07zm-0.02 -0.07l0.03 -0.29c0.19,0 0.46,-0.03 0.6,0.06l2.27 2.18c-0.16,0.03 -0.55,-0.04 -0.65,-0.13l-0.85 -0.27 0 0c-0.7,-0.17 -0.94,-0.52 -1.41,-0.97 -0.08,-0.08 -0.13,-0.16 -0.21,-0.24 -0.19,-0.19 -0.31,-0.24 -0.23,-0.63l0.48 0 -0.03 0.29zm-0.25 -0.82l0 -1.62 0 1.62 0 0zm-0.01 -3.24l0 0c-0.16,-0.03 -0.31,-0.07 -0.46,-0.03 -0.06,0.19 -0.02,2.4 -0.03,2.95 0,0.16 -0.04,0.3 0.09,0.33l0 0c0.01,0 0.02,0 0.02,0.01 0.01,0.01 0.02,0.01 0.02,0.01 0.48,0.12 1.14,-0.24 1.74,0.33 0.09,0.09 0.15,0.18 0.25,0.26l1.88 1.83c0.19,0.18 0.36,0.33 0.55,0.51 0.16,0.15 0.33,0.41 0.69,0.35l-0.46 -0.64c-0.04,-0.06 -0.54,-0.61 -0.08,-0.69 0.22,-0.04 0.4,0.3 0.57,0.54 0.16,0.21 0.33,0.49 0.51,0.68l0.66 -0.15 -0.57 -0.96c-0.18,-0.3 -0.59,-0.8 -0.34,-0.98 0.3,-0.22 0.49,0.3 0.74,0.7 0.09,0.14 0.55,0.87 0.56,0.96 0.08,0.07 0.05,0.07 0.12,0.12 0.27,-0.11 0.48,-0.29 0.68,-0.44l-0.11 -0.17c-0.08,-0.19 -0.87,-1.4 -1.05,-1.7 -0.08,-0.14 -0.34,-0.45 -0.29,-0.63 0.04,-0.12 0.16,-0.19 0.3,-0.15 0.16,0.03 0.49,0.65 0.58,0.8 0.09,0.14 0.68,1.07 0.69,1.13 0.11,0.12 0.19,0.33 0.28,0.4 0.54,-0.41 0.09,-0.97 -0.16,-1.38 -0.25,-0.44 -0.51,-0.86 -0.77,-1.31 -0.29,-0.48 -0.3,-0.54 -0.69,-0.85l-0.82 -0.73c-0.05,-0.04 -0.09,-0.06 -0.14,-0.11 -0.24,-0.22 -0.18,-0.2 -0.59,-0.22 -0.36,0.03 -0.31,-0.06 -0.55,0.14 -0.12,0.09 -0.27,0.22 -0.41,0.31 -0.31,0.21 -0.82,0.16 -1.02,-0.1 -0.3,-0.38 -0.29,-0.52 -0.09,-1.01l-0.48 0.06c-0.72,0.08 -1.15,-0.05 -1.82,-0.17z"/>
   <path class="fil1" d="M13.39 0.23c0,0.09 0.04,0.16 0.1,0.21 0.09,0.07 0.14,0.05 0.27,0.05l-2.29 2.3c-0.04,0 -0.24,-0.14 -0.5,-0.13 -0.27,0.01 -0.35,0.06 -0.44,0.1 -0.12,-0.07 -0.35,-0.39 -0.45,-0.5 0.47,-0.77 -0.16,-1.59 -0.86,-1.55 -0.45,0.01 -0.96,0.4 -0.95,1.01 0,0.22 0.06,0.33 0.12,0.48l-2.29 2.3c-0.43,-0.25 -0.84,-0.09 -1.02,0.01l-1.06 -1.08c0.06,-0.08 0.18,-0.34 0.14,-0.62 -0.05,-0.47 -0.44,-0.88 -0.99,-0.89 -0.52,0 -0.96,0.42 -0.99,0.94 -0.01,0.28 0.09,0.44 0.1,0.51l-0.56 0.55c-0.38,0.29 -1.05,0.98 -1.48,1.34 -0.16,0.13 -0.23,0.25 -0.24,0.33l0 0.07c0.02,0.13 0.16,0.19 0.23,0.19 0.16,0 0.5,-0.34 0.63,-0.48 0.28,-0.27 1.67,-1.49 1.77,-1.63 0.29,0.2 0.67,0.23 1.04,0.04 0.09,0.06 1.07,1.05 1.07,1.07 -0.05,0.13 -0.17,0.37 -0.11,0.69 0.17,0.88 1.33,1.11 1.82,0.33 0.19,-0.33 0.18,-0.68 0.01,-1l2.3 -2.31c0.12,0.07 0.25,0.12 0.47,0.13 0.16,0.01 0.33,-0.03 0.45,-0.09 0.11,0.07 0.38,0.39 0.46,0.51 -0.45,0.68 0.05,1.55 0.87,1.53 0.56,-0.05 0.94,-0.47 0.94,-1.01 0,-0.24 -0.07,-0.35 -0.13,-0.46l2.3 -2.32c0.01,0.08 -0.01,0.38 0.24,0.38 0.16,0 0.23,-0.1 0.26,-0.25l0 -0.75c0,-0.14 -0.09,-0.23 -0.23,-0.23l-0.74 0c-0.15,0.02 -0.26,0.09 -0.26,0.23zm-2.43 3.92c0.27,0 0.49,-0.22 0.49,-0.5 0,-0.27 -0.22,-0.49 -0.49,-0.49 -0.27,0 -0.49,0.22 -0.49,0.49 0,0.28 0.22,0.5 0.49,0.5zm-1.7 -1.95c0.27,0 0.49,-0.22 0.49,-0.5 0,-0.27 -0.22,-0.49 -0.49,-0.49 -0.27,0 -0.49,0.22 -0.49,0.49 0,0.28 0.22,0.5 0.49,0.5zm-3.66 3.65c0.27,0 0.49,-0.22 0.49,-0.49 0,-0.27 -0.22,-0.49 -0.49,-0.49 -0.27,0 -0.48,0.22 -0.48,0.49 0,0.27 0.21,0.49 0.48,0.49zm-2.43 -3.42c0.27,0 0.49,0.22 0.49,0.49 0,0.27 -0.22,0.49 -0.49,0.49 -0.27,0 -0.49,-0.22 -0.49,-0.49 0,-0.27 0.22,-0.49 0.49,-0.49z"/>
  </g>
 </g>
</svg>
