<?xml version="1.0" encoding="UTF-8"?>
<!DOCTYPE svg PUBLIC "-//W3C//DTD SVG 1.1//EN" "http://www.w3.org/Graphics/SVG/1.1/DTD/svg11.dtd">
<!-- Creator: CorelDRAW 2020 (64-Bit) -->
<svg xmlns="http://www.w3.org/2000/svg" xml:space="preserve" width="610px" height="610px" version="1.1" style="shape-rendering:geometricPrecision; text-rendering:geometricPrecision; image-rendering:optimizeQuality; fill-rule:evenodd; clip-rule:evenodd"
viewBox="0 0 16.03 16.03"
 xmlns:xlink="http://www.w3.org/1999/xlink"
 xmlns:xodm="http://www.corel.com/coreldraw/odm/2003">
 <defs>
  <style type="text/css">
   <![CDATA[
    .fil1 {fill:#FEFFFF}
    .fil0 {fill:#007BB9}
   ]]>
  </style>
 </defs>
 <g id="Capa_x0020_1">
  <metadata id="CorelCorpID_0Corel-Layer"/>
  <path class="fil0" d="M8.85 11.24c0.1,-0.07 0.22,-0.11 0.22,-0.29 0.01,-0.17 -0.12,-0.2 -0.22,-0.28 -1.34,0 -2.69,0 -4.03,0l0 -0.5c1.23,0 1.77,0.17 1.57,-0.62 -0.09,-0.35 -0.17,-0.54 -0.35,-0.79 -0.15,-0.21 -0.38,-0.4 -0.63,-0.53 0.12,-0.17 0.65,-0.55 0.42,-1.39 -0.03,-0.13 -0.07,-0.22 -0.14,-0.32 -0.19,-0.29 -0.5,-0.57 -0.87,-0.6 0,-0.68 0,-0.57 1.31,-0.57l4.7 0c0.41,0 0.38,0.18 0.38,0.57 -0.25,0.02 -0.48,0.18 -0.64,0.3 -0.37,0.31 -0.52,0.94 -0.35,1.43 0.13,0.39 0.29,0.43 0.39,0.58 -0.54,0.29 -0.81,0.71 -0.96,1.29 -0.22,0.83 0.3,0.65 1.56,0.65l0 0.5 -0.3 0c-0.14,0.1 -0.35,0.28 -0.14,0.47l0.14 0.1 2.61 0c0.4,0 0.35,0.16 0.35,0.53l-0.34 0.13c-0.7,0.35 -0.93,1.3 -0.48,1.94 0.07,0.11 0.16,0.19 0.22,0.28 -0.2,0.1 -0.34,0.22 -0.49,0.38 -0.28,0.29 -0.42,0.57 -0.48,1.02 -0.07,0.45 0.05,0.5 0.39,0.51l0.24 0 2.41 0 0.39 0c0.16,-0.02 0.27,-0.07 0.3,-0.26l0 -0.18c-0.01,-0.02 -0.01,-0.04 -0.01,-0.06 -0.05,-0.35 -0.17,-0.61 -0.34,-0.85 -0.15,-0.21 -0.39,-0.49 -0.66,-0.56 0.15,-0.23 0.67,-0.61 0.42,-1.42 -0.13,-0.41 -0.42,-0.72 -0.82,-0.87 -0.06,-0.02 -0.13,-0.03 -0.19,-0.06 0,-0.38 0,-0.55 -0.17,-0.77 -0.13,-0.18 -0.34,-0.31 -0.61,-0.33 -0.56,-0.04 -1.3,0 -1.88,0l0 -0.5c1.32,0 1.69,0.18 1.56,-0.61 -0.11,-0.61 -0.49,-1.08 -0.97,-1.33 0.19,-0.28 0.64,-0.61 0.42,-1.38 -0.13,-0.44 -0.51,-0.89 -1.01,-0.93 0,-0.86 -0.3,-1.13 -1.16,-1.13 -0.77,0 -1.54,0 -2.32,0l0 -0.5c0.38,0 0.76,0 1.13,0 0.5,0 0.52,-0.2 0.43,-0.62 -0.09,-0.45 -0.48,-1.18 -0.96,-1.29 0.14,-0.21 0.31,-0.38 0.4,-0.63 0.29,-0.8 -0.32,-1.71 -1.22,-1.75l-0.12 0c-1.09,0.05 -1.6,1.25 -1.05,2.08 0.08,0.12 0.17,0.2 0.24,0.3 -0.58,0.13 -1.2,1.38 -0.96,1.77 0.08,0.15 0.21,0.14 0.42,0.14 0.38,0 0.76,0 1.13,0l0 0.5c-0.76,0 -1.52,0 -2.28,0 -0.87,0 -1.19,0.24 -1.19,1.13 -0.26,0.02 -0.51,0.19 -0.66,0.34 0,0.01 -0.01,0.01 -0.01,0.02 -0.35,0.38 -0.47,0.86 -0.32,1.37 0.05,0.14 0.1,0.2 0.17,0.31 0.08,0.12 0.15,0.17 0.22,0.27 -0.12,0.08 -0.22,0.13 -0.33,0.23 -0.11,0.09 -0.19,0.17 -0.28,0.29 -0.17,0.23 -0.29,0.44 -0.35,0.78 -0.07,0.41 -0.08,0.64 0.4,0.64 0.38,0.01 0.77,0 1.16,0l0 0.5c-0.58,0 -1.32,-0.04 -1.88,0 -0.27,0.02 -0.48,0.15 -0.62,0.33 -0.16,0.22 -0.16,0.39 -0.16,0.77 -0.32,0.15 -0.78,0.19 -1.01,0.93 -0.09,0.31 -0.08,0.54 0.02,0.83 0.11,0.32 0.24,0.36 0.39,0.59 -0.46,0.12 -0.9,0.85 -0.99,1.39 0,0.03 -0.01,0.06 -0.01,0.08l0 0.19c0.03,0.2 0.17,0.24 0.38,0.25l0.28 0 2.41 0 0.32 0c0.28,-0.01 0.4,-0.08 0.34,-0.48 -0.07,-0.46 -0.17,-0.73 -0.45,-1.02l-0.09 -0.1c0,0 -0.01,-0.01 -0.02,-0.01 -0.01,-0.02 -0.03,-0.03 -0.04,-0.05 -0.15,-0.13 -0.2,-0.16 -0.38,-0.25 0.06,-0.09 0.14,-0.16 0.22,-0.26 0.45,-0.63 0.24,-1.59 -0.45,-1.95 -0.07,-0.03 -0.12,-0.06 -0.17,-0.08 -0.07,-0.03 -0.12,-0.03 -0.19,-0.06 0,-0.68 0.07,-0.53 0.97,-0.53 1.53,0 3.07,0 4.6,0l0 0.53c-0.33,0.16 -0.8,0.22 -1,0.93 -0.08,0.26 -0.08,0.58 0.02,0.83 0.11,0.27 0.24,0.37 0.39,0.59 -0.21,0.05 -0.52,0.37 -0.65,0.54 -0.15,0.2 -0.56,1.08 -0.25,1.32 0.04,0.02 0.14,0.04 0.29,0.05l1.48 0 1.53 0c0.11,-0.01 0.19,-0.02 0.22,-0.04 0.12,-0.08 0.15,-0.24 0.12,-0.45 -0.06,-0.33 -0.18,-0.65 -0.33,-0.86 -0.12,-0.17 -0.45,-0.51 -0.66,-0.56 0.15,-0.22 0.27,-0.3 0.39,-0.59 0.19,-0.49 0.01,-1.08 -0.35,-1.43 -0.07,-0.07 -0.18,-0.14 -0.28,-0.19l-0.36 -0.14 0 -0.53 0.56 0zm-8.26 4.25l2.6 0c-0.29,-1.39 -2.26,-1.4 -2.6,0zm6.12 0l2.6 0c-0.28,-1.39 -2.26,-1.4 -2.6,0zm6.14 0l2.6 0c-0.28,-1.39 -2.26,-1.4 -2.6,0zm-2.67 -5.87l2.6 0c-0.28,-1.4 -2.26,-1.4 -2.6,0zm-6.94 0l2.6 0c-0.28,-1.4 -2.26,-1.4 -2.6,0zm10.92 4.27c0.45,0 0.81,-0.36 0.81,-0.8 0,-0.44 -0.36,-0.8 -0.81,-0.8 -0.44,0 -0.8,0.36 -0.8,0.8 0,0.44 0.36,0.8 0.8,0.8zm-6.13 0c0.45,0 0.81,-0.36 0.81,-0.8 0,-0.44 -0.36,-0.8 -0.81,-0.8 -0.44,0 -0.8,0.36 -0.8,0.8 0,0.44 0.36,0.8 0.8,0.8zm-6.15 0c0.45,0 0.81,-0.36 0.81,-0.8 0,-0.44 -0.36,-0.8 -0.81,-0.8 -0.44,0 -0.8,0.36 -0.8,0.8 0,0.44 0.36,0.8 0.8,0.8zm9.61 -5.88c0.44,0 0.8,-0.36 0.8,-0.8 0,-0.44 -0.36,-0.79 -0.8,-0.79 -0.45,0 -0.8,0.35 -0.8,0.79 0,0.44 0.35,0.8 0.8,0.8zm-6.95 0c0.45,0 0.81,-0.36 0.81,-0.8 0,-0.44 -0.36,-0.79 -0.81,-0.79 -0.44,0 -0.8,0.35 -0.8,0.79 0,0.44 0.36,0.8 0.8,0.8zm3.49 -5.33c-0.61,0.03 -0.94,0.31 -1.11,0.59 -0.09,0.13 -0.16,0.29 -0.21,0.48l0.04 0 0 0 2.56 0 0 0c0,-0.01 0,-0.01 0,-0.02 -0.02,-0.09 -0.05,-0.18 -0.09,-0.26 -0.11,-0.27 -0.3,-0.47 -0.53,-0.6 -0.2,-0.13 -0.44,-0.2 -0.66,-0.19zm-0.41 -2.03c-0.27,0.14 -0.51,0.53 -0.36,0.95 0.12,0.37 0.42,0.55 0.89,0.54 0.96,-0.32 0.75,-1.28 0.19,-1.53 -0.22,-0.1 -0.54,-0.08 -0.72,0.04z"/>
  <path class="fil1" d="M10.83 8.5l0.88 0 -0.13 -0.09c-0.18,-0.17 0,-0.34 0.12,-0.42l-0.87 0c0.09,0.07 0.19,0.09 0.19,0.25 0,0.17 -0.17,0.24 -0.17,0.24 0,0 -0.01,0.01 -0.02,0.02z"/>
  <path class="fil1" d="M9.85 8.5l0.89 0c-0.08,-0.06 -0.31,-0.21 -0.13,-0.41 0.01,-0.02 0.04,-0.04 0.06,-0.06l0.06 -0.04 -0.87 0c0.09,0.07 0.2,0.09 0.2,0.25 0,0.16 -0.11,0.2 -0.21,0.26z"/>
 </g>
</svg>
