<?xml version="1.0" encoding="UTF-8"?>
<!DOCTYPE svg PUBLIC "-//W3C//DTD SVG 1.1//EN" "http://www.w3.org/Graphics/SVG/1.1/DTD/svg11.dtd">
<!-- Creator: CorelDRAW 2020 (64-Bit) -->
<svg xmlns="http://www.w3.org/2000/svg" xml:space="preserve" width="601px" height="601px" version="1.1" style="shape-rendering:geometricPrecision; text-rendering:geometricPrecision; image-rendering:optimizeQuality; fill-rule:evenodd; clip-rule:evenodd"
viewBox="0 0 9.83 9.83"
 xmlns:xlink="http://www.w3.org/1999/xlink"
 xmlns:xodm="http://www.corel.com/coreldraw/odm/2003">
 <defs>
  <style type="text/css">
   <![CDATA[
    .fil0 {fill:#FEFFFF}
    .fil1 {fill:#007BB9}
   ]]>
  </style>
 </defs>
 <g id="Capa_x0020_1">
  <metadata id="CorelCorpID_0Corel-Layer"/>
  <path class="fil0" d="M7.04 5.11l0.52 0 -0.08 -0.05c-0.11,-0.1 0,-0.2 0.08,-0.25l-0.52 0c0.05,0.04 0.11,0.06 0.11,0.15 0,0.1 -0.1,0.15 -0.1,0.15 0,-0.01 -0.01,0 -0.01,0z"/>
  <path class="fil0" d="M6.45 5.11l0.53 0c-0.05,-0.03 -0.18,-0.12 -0.08,-0.24 0.01,-0.01 0.02,-0.02 0.04,-0.03l0.03 -0.03 -0.52 0c0.06,0.04 0.13,0.06 0.12,0.15 0,0.1 -0.06,0.12 -0.12,0.15z"/>
  <g id="_2118448908496">
   <path class="fil1" d="M5.58 4.76l3.61 0.01 0 -1.31 -3.59 0 -0.02 1.3zm0.31 -0.28l2.99 0.01 0 -0.75 -2.97 0 -0.02 0.74z"/>
   <path class="fil1" d="M8.21 8.7l0.91 0 0.07 0 0 -2.29 -0.08 -0.01 -0.9 0.01 0 2.29zm0.25 -0.33l0.44 0 0.03 0 0 -1.63 -0.03 0 -0.44 0 0 1.63z"/>
   <path class="fil1" d="M5.58 7.39l0.08 0 0.91 0 0 -0.98 -0.99 0 0 0.98zm0.27 -0.26l0.46 0 0 -0.46 -0.46 0 0 0.46z"/>
   <path class="fil1" d="M5.59 6.08l0.98 0 0 -0.99 -0.99 0.01 0.01 0.98zm0.26 -0.26l0.46 0 0 -0.47 -0.46 0 0 0.47z"/>
   <path class="fil1" d="M5.58 8.7l0.99 0 0 -0.98 -0.98 0 -0.01 0.98zm0.27 -0.26l0.46 0 0 -0.46 -0.46 0 0 0.46z"/>
   <path class="fil1" d="M8.21 6.01l0 0.07 0.97 0 0.01 -0.98 -0.08 -0.01 -0.9 0 0 0.92zm0.26 -0.19l0.46 0 0 -0.47 -0.46 0 0 0.47z"/>
   <path class="fil1" d="M6.9 7.38l0.06 0.01 0.85 0 0.07 -0.01 0 -0.97 -0.99 0 0.01 0.97zm0.25 -0.25l0.47 0 0 -0.46 -0.47 0 0 0.46z"/>
   <path class="fil1" d="M6.9 8.69l0.98 0.01 0 -0.98 -0.98 0 0 0.97zm0.26 -0.25l0.46 0 0 -0.46 -0.46 0 0 0.46z"/>
   <path class="fil1" d="M6.91 6.07l0.96 0 0 -0.96 -0.96 0 0 0.96zm0.25 -0.25l0.46 0 0 -0.46 -0.46 0 0 0.46z"/>
   <path class="fil1" d="M0 0.48l0 8.75c0,0.29 0.31,0.6 0.6,0.6l6.31 0c0.3,0 0.58,-0.28 0.6,-0.48l2.32 0 0 -6.57 -2.23 0c-0.01,-0.15 -0.01,-0.27 -0.09,-0.38 -0.29,-0.43 -2.17,-2.29 -2.38,-2.4l-4.65 0c-0.26,0 -0.48,0.22 -0.48,0.48zm6.94 1.56c-0.05,-0.13 -1.68,-1.6 -1.71,-1.62 0,0.27 0,0.53 0,0.8 0,0.95 -0.16,0.82 0.84,0.82 0.29,0 0.58,0 0.87,0zm-6.6 -1.25l0 8.14c0,0.27 0.29,0.56 0.55,0.56l5.88 0c0.28,0 0.54,-0.26 0.56,-0.45l2.16 0 0.01 -5.93 -2.16 0c0,-0.23 -0.02,-0.4 -0.04,-0.54 -0.07,-0.14 -0.18,-0.29 -0.3,-0.38 -0.41,0 -1.33,0 -1.78,0 -0.11,0 -0.15,-0.07 -0.15,-0.15 0,-0.42 0,-1.27 0,-1.7l-4.28 0c-0.25,0 -0.45,0.2 -0.45,0.45z"/>
   <path class="fil1" d="M2.57 8.2c0.33,0 0.71,-0.09 0.94,-0.24 0.6,-0.38 0.85,-0.79 0.92,-1.53 0.02,-0.18 -0.06,-0.55 -0.14,-0.73 -0.27,-0.62 -0.91,-1.11 -1.56,-1.11 -0.39,0 -0.56,0.01 -0.91,0.18 -0.49,0.25 -0.86,0.71 -0.97,1.25 -0.13,0.64 0.09,1.33 0.59,1.73 0.32,0.26 0.68,0.45 1.13,0.45zm-0.14 -3.27c-0.75,0.1 -1.4,0.78 -1.27,1.67 0.11,0.73 0.79,1.38 1.67,1.25 0.74,-0.11 1.38,-0.8 1.25,-1.67 -0.11,-0.74 -0.79,-1.37 -1.65,-1.25z"/>
   <path class="fil1" d="M2.46 5.18l0 0.08c-0.81,0.16 -0.84,0.93 -0.25,1.2 0.08,0.04 0.18,0.06 0.24,0.09l0.01 0.63c-0.19,-0.04 -0.28,-0.12 -0.34,-0.3l-0.31 0c-0.02,0.2 0.11,0.34 0.2,0.44 0.16,0.14 0.24,0.12 0.44,0.21l0.01 0.17 0.32 0 0 -0.18c0.32,-0.08 0.65,-0.24 0.66,-0.63 0,-0.37 -0.32,-0.58 -0.66,-0.65l0.01 -0.65c0.09,0.04 0.14,0.05 0.21,0.1 0.24,0.18 -0.11,0.21 0.44,0.21 -0.03,-0.39 -0.29,-0.56 -0.65,-0.64l-0.01 -0.18 -0.32 0 0 0.1zm0 1.02l0 -0.61c-0.16,0.06 -0.33,0.12 -0.33,0.3 0,0.18 0.18,0.27 0.33,0.31zm0.32 0.98c0.43,-0.09 0.45,-0.49 0,-0.6l0 0.6z"/>
   <polygon class="fil1" points="0.65,1.15 4.59,1.15 4.59,0.81 0.65,0.81 "/>
   <polygon class="fil1" points="0.65,2.46 4.59,2.46 4.59,2.13 0.65,2.13 "/>
   <polygon class="fil1" points="0.65,3.11 4.59,3.11 4.59,2.78 0.65,2.78 "/>
   <path class="fil1" d="M0.65 3.78l1.92 0c0.05,0 0.06,-0.01 0.06,-0.06l0 -0.28 -1.98 0 0 0.34z"/>
   <polygon class="fil1" points="0.65,1.8 2.63,1.8 2.63,1.48 0.65,1.48 "/>
   <path class="fil1" d="M2.94 3.72c0,0.05 0.01,0.06 0.05,0.06l1.6 0 0 -0.34 -1.65 0 0 0.28z"/>
   <polygon class="fil1" points="2.94,1.8 4.59,1.8 4.59,1.48 2.94,1.48 "/>
  </g>
 </g>
</svg>
